HIERARCHY
ROOT Hips
{
	OFFSET 0.00000 0.00000 0.00000
	CHANNELS 6 Xposition Yposition Zposition Zrotation Yrotation Xrotation 
	JOINT LHipJoint
	{
		OFFSET 0 0 0
		CHANNELS 3 Zrotation Yrotation Xrotation
		JOINT LeftUpLeg
		{
			OFFSET 1.30186 -1.90722 0.65024
			CHANNELS 3 Zrotation Yrotation Xrotation
			JOINT LeftLeg
			{
				OFFSET 2.56413 -7.04489 0.00000
				CHANNELS 3 Zrotation Yrotation Xrotation
				JOINT LeftFoot
				{
					OFFSET 2.79321 -7.67428 0.00000
					CHANNELS 3 Zrotation Yrotation Xrotation
					JOINT LeftToeBase
					{
						OFFSET 0.15723 -0.43198 2.08537
						CHANNELS 3 Zrotation Yrotation Xrotation
						End Site
						{
							OFFSET 0.00000 -0.00000 1.07411
						}
					}
				}
			}
		}
	}
	JOINT RHipJoint
	{
		OFFSET 0 0 0
		CHANNELS 3 Zrotation Yrotation Xrotation
		JOINT RightUpLeg
		{
			OFFSET -1.28627 -1.90723 0.65024
			CHANNELS 3 Zrotation Yrotation Xrotation
			JOINT RightLeg
			{
				OFFSET -2.56567 -7.04913 0.00000
				CHANNELS 3 Zrotation Yrotation Xrotation
				JOINT RightFoot
				{
					OFFSET -2.75597 -7.57198 0.00000
					CHANNELS 3 Zrotation Yrotation Xrotation
					JOINT RightToeBase
					{
						OFFSET -0.17500 -0.48081 2.22901
						CHANNELS 3 Zrotation Yrotation Xrotation
						End Site
						{
							OFFSET -0.00000 -0.00000 1.14762
						}
					}
				}
			}
		}
	}
	JOINT LowerBack
	{
		OFFSET 0 0 0
		CHANNELS 3 Zrotation Yrotation Xrotation
		JOINT Spine
		{
			OFFSET -0.04522 2.07467 -0.16566
			CHANNELS 3 Zrotation Yrotation Xrotation
			JOINT Spine1
			{
				OFFSET -0.01178 2.08825 -0.05393
				CHANNELS 3 Zrotation Yrotation Xrotation
				JOINT Neck
				{
					OFFSET 0 0 0
					CHANNELS 3 Zrotation Yrotation Xrotation
					JOINT Neck1
					{
						OFFSET -0.05182 1.80489 0.16014
						CHANNELS 3 Zrotation Yrotation Xrotation
						JOINT Head
						{
							OFFSET 0.14739 1.78840 -0.33342
							CHANNELS 3 Zrotation Yrotation Xrotation
							End Site
							{
								OFFSET 0.04364 1.83899 -0.13460
							}
						}
					}
				}
				JOINT LeftShoulder
				{
					OFFSET 0 0 0
					CHANNELS 3 Zrotation Yrotation Xrotation
					JOINT LeftArm
					{
						OFFSET 3.01264 1.29090 -0.06579
						CHANNELS 3 Zrotation Yrotation Xrotation
						JOINT LeftForeArm
						{
							OFFSET 5.55680 -0.00000 0.00000
							CHANNELS 3 Zrotation Yrotation Xrotation
							JOINT LeftHand
							{
								OFFSET 3.63979 -0.00000 -0.00000
								CHANNELS 3 Zrotation Yrotation Xrotation
								JOINT LeftFingerBase
								{
									OFFSET 0 0 0
									CHANNELS 3 Zrotation Yrotation Xrotation
									JOINT LeftHandIndex1
									{
										OFFSET 0.56942 -0.00000 -0.00000
										CHANNELS 3 Zrotation Yrotation Xrotation
										End Site
										{
											OFFSET 0.45908 -0.00000 -0.00000
										}
									}
								}
								JOINT LThumb
								{
									OFFSET 0 0 0
									CHANNELS 3 Zrotation Yrotation Xrotation
									End Site
									{
										OFFSET 0.46609 -0.00000 0.46609
									}
								}
							}
						}
					}
				}
				JOINT RightShoulder
				{
					OFFSET 0 0 0
					CHANNELS 3 Zrotation Yrotation Xrotation
					JOINT RightArm
					{
						OFFSET -3.15796 1.37283 -0.36748
						CHANNELS 3 Zrotation Yrotation Xrotation
						JOINT RightForeArm
						{
							OFFSET -5.34339 -0.00000 0.00000
							CHANNELS 3 Zrotation Yrotation Xrotation
							JOINT RightHand
							{
								OFFSET -3.65101 -0.00000 -0.00000
								CHANNELS 3 Zrotation Yrotation Xrotation
								JOINT RightFingerBase
								{
									OFFSET 0 0 0
									CHANNELS 3 Zrotation Yrotation Xrotation
									JOINT RightHandIndex1
									{
										OFFSET -0.69425 -0.00000 -0.00000
										CHANNELS 3 Zrotation Yrotation Xrotation
										End Site
										{
											OFFSET -0.55972 -0.00000 -0.00000
										}
									}
								}
								JOINT RThumb
								{
									OFFSET 0 0 0
									CHANNELS 3 Zrotation Yrotation Xrotation
									End Site
									{
										OFFSET -0.56827 -0.00000 0.56827
									}
								}
							}
						}
					}
				}
			}
		}
	}
}
MOTION
Frames: 14
Frame Time: 0.015748
0.00 0.00 0.00 175.0020 80.9659 -181.8170 0.0000 0.0000 0.0000 -17.0842 3.4227 -32.8128 7.6255 15.8368 51.2022 0.0263 -11.3744 -8.3585 0.0000 0.0043 0.0119 0.0000 0.0000 0.0000 16.1989 1.9498 -4.8817 -3.5373 -11.5178 34.0467 -2.9803 -4.8683 -34.5895 -1.2497 -7.0877 19.9754 0.1122 1.5173 5.9898 -0.3070 2.0460 1.2919 -0.5343 1.0304 -2.0106 -4.1226 -2.0926 -3.1245 0.5680 -2.5903 4.7952 0.8107 -1.3426 2.1086 -0.0000 0.0000 0.0000 -53.1807 -9.9450 -2.9523 155.2915 -35.9045 -111.8817 -0.0000 0.0000 -49.4662 -13.4126 28.3712 -6.4649 -7.1250 0.0000 -0.0000 -44.4004 52.7332 -10.0443 -0.0000 0.0000 0.0000 60.9355 8.2969 4.1666 -156.4187 34.7184 -112.5333 0.0000 -0.0000 -30.9017 -4.9044 32.0913 -2.6101 7.1250 -0.0000 -0.0000 15.0961 1.2417 15.9802
0.00 0.00 0.00 183.4300 82.6110 -175.0970 0.0000 0.0000 0.0000 -13.0025 1.8308 -35.9475 8.0310 16.1420 52.6743 -1.3264 -20.1417 4.1022 0.0332 -1.1760 -3.2331 0.0000 0.0000 0.0000 15.9889 1.8417 -7.0044 -3.9885 -12.1451 36.2472 -2.5795 -5.0890 -32.4615 -0.2620 -3.2929 9.0953 2.0215 1.5289 9.4937 0.7035 2.3272 2.3234 -0.6824 1.1794 -2.8556 -3.8754 -1.9270 -1.2422 -1.7971 -2.3556 3.7663 0.0525 -1.2390 1.3940 0.0000 0.0000 0.0000 -47.2587 -32.5151 -13.3580 141.8147 -46.9573 -102.8991 -0.0000 0.0000 -30.0711 6.6827 19.6561 2.2570 -7.1250 0.0000 -0.0000 -20.9594 48.5815 -1.9299 0.0000 0.0000 0.0000 54.2656 38.2347 -8.4297 -142.8504 46.2875 -103.6519 0.0000 -0.0000 -21.2477 -11.5986 29.1924 -5.7167 7.1250 -0.0000 -0.0000 11.1563 -0.7700 11.2211
0.00 0.00 0.00 173.0480 84.4090 -185.3550 0.0000 0.0000 0.0000 -13.1080 1.1242 -35.7551 6.9902 15.3236 48.8371 -0.9238 -17.4229 1.2567 0.0451 -1.3707 -3.7693 0.0000 0.0000 0.0000 14.2881 3.1862 -7.3180 -3.8802 -11.9993 35.7294 -2.5773 -4.6021 -32.2211 -0.3495 -3.7983 10.5100 -0.4000 2.0324 10.9885 1.4446 2.7812 1.2978 1.3121 1.4162 -4.8931 -3.7843 -1.7868 0.8700 -3.6676 -2.0966 5.0579 -0.5247 -1.1212 1.4156 0.0000 0.0000 0.0000 -46.3091 -39.2873 -8.8364 126.3168 -54.3771 -90.8574 -0.0000 0.0000 -28.7805 4.5345 23.3570 1.8009 -7.1250 0.0000 -0.0000 -24.8065 51.6565 -4.2871 0.0000 0.0000 0.0000 50.7300 47.6642 -3.6007 -121.9390 55.7707 -87.2672 0.0000 -0.0000 -15.8300 -8.2991 27.6821 -3.8767 7.1250 -0.0000 -0.0000 13.0078 -2.6615 12.7266
0.00 0.00 0.00 174.9780 85.4971 -183.4040 0.0000 0.0000 0.0000 -11.9037 0.7062 -35.1884 6.2176 14.6359 45.8489 -0.3715 -13.2246 -3.4147 0.1610 -2.5849 -7.1251 0.0000 0.0000 0.0000 14.3951 4.2533 -6.8647 -3.6460 -11.6738 34.5876 -2.5399 -4.7350 -32.0659 -0.1850 -2.7700 7.6391 -0.3248 2.1957 11.2034 1.6430 3.0195 1.1636 1.4298 1.5342 -5.1677 -3.2497 -1.7492 1.2870 -4.2030 -1.9740 6.0587 -0.7840 -1.0667 1.6532 -0.0000 -0.0000 0.0000 -42.3248 -42.6639 -5.0404 108.2916 -58.6972 -75.7717 -0.0000 0.0000 -27.6454 3.2696 25.4379 1.4057 -7.1250 0.0000 -0.0000 -27.2437 53.3035 -5.9100 -0.0000 -0.0000 0.0000 45.8474 52.1807 0.0870 -97.0913 59.8091 -66.1373 0.0000 -0.0000 -13.4048 -6.3276 26.9833 -2.8803 7.1250 -0.0000 -0.0000 14.1477 -3.5498 13.6753
0.00 0.00 0.00 29.9804 87.6379 -326.0840 0.0000 0.0000 0.0000 -3.9433 -11.0251 -22.6283 1.7820 8.3964 23.9247 0.3000 4.9899 -13.3948 0.0282 -1.0838 -2.9794 0.0000 0.0000 0.0000 12.3055 12.1162 -1.5022 -1.8883 -8.6295 24.6432 -1.8882 -7.4512 -29.5237 -0.9598 -6.2382 17.4770 0.2957 2.0910 6.5143 -1.4813 2.7984 1.3368 -1.9212 1.4048 -2.1816 -1.9115 -1.4415 -2.4322 -0.2275 -1.6330 11.3382 0.1943 -0.8309 4.1565 -0.0000 0.0000 0.0000 -26.4479 -42.2711 27.0210 57.1899 -55.5134 -32.0136 -0.0000 0.0000 -14.0237 -19.9170 32.0678 -10.8889 -7.1250 0.0000 -0.0000 -53.1945 54.1647 -15.2431 -0.0000 0.0000 0.0000 30.5276 52.1174 40.2623 -57.7858 55.6905 -32.5053 0.0000 -0.0000 -6.3167 5.6532 32.4043 3.0365 7.1250 -0.0000 -0.0000 20.8057 0.7675 22.6216
0.00 0.00 0.00 4.4410 84.9955 -350.6470 0.0000 0.0000 0.0000 -1.0521 -12.4032 -18.3327 1.4361 7.5766 21.4354 0.2695 8.5200 -16.3502 0.0000 -0.0027 -0.0073 0.0000 0.0000 0.0000 11.2604 12.6340 -1.5098 -1.6780 -8.1605 23.2027 -1.6536 -6.1027 -27.1443 -1.0744 -6.5888 18.5027 -1.1786 2.0954 4.6648 -0.7212 2.7569 1.7425 -0.2261 1.3878 -0.8426 -2.2954 -1.1267 -4.4764 -0.8220 -1.1356 10.3483 0.0771 -0.6486 4.2014 -0.0000 0.0000 0.0000 -40.1972 -31.2768 31.5771 78.8735 -59.5270 -50.3795 -0.0000 0.0000 -21.8926 -7.4162 33.6707 -4.1277 -7.1250 0.0000 -0.0000 -44.0461 57.9168 -15.9222 -0.0000 0.0000 0.0000 46.9919 40.4216 48.9078 -77.2774 59.3795 -49.0048 0.0000 -0.0000 -12.0943 -2.8736 32.0902 -1.5275 7.1250 -0.0000 -0.0000 16.2154 1.0392 17.2060
0.00 0.00 0.00 22.9454 76.9397 -331.8050 0.0000 0.0000 0.0000 -19.5562 -5.8359 -7.6515 1.4370 7.5790 21.4425 1.0178 7.9079 -23.4738 0.2907 -3.4675 -9.5831 0.0000 0.0000 0.0000 -1.8911 11.4568 -24.0898 -7.2976 -15.5774 49.9909 -0.0164 -7.0691 -10.4569 -0.7687 -5.5987 15.6243 -8.3782 -0.9953 6.2620 -0.5521 -1.8079 1.7915 4.2576 -0.8775 -1.4056 -4.2981 -5.7499 -13.3631 5.4044 -7.7808 13.3118 1.6679 -3.5172 6.6344 0.0000 0.0000 0.0000 -92.0946 17.4896 -8.5771 12.5727 -20.6579 -2.3003 -0.0000 0.0000 -6.6557 21.7945 21.3009 8.2648 -7.1250 0.0000 -0.0000 -7.1217 52.6197 -1.3409 0.0000 0.0000 0.0000 90.6565 -23.7361 -16.8130 -27.2517 38.4182 -9.6551 0.0000 -0.0000 -31.8102 -31.4008 23.8316 -13.8549 7.1250 -0.0000 -0.0000 -1.2977 -2.6241 -1.2373
0.00 0.00 0.00 10.5349 73.4441 -341.7150 0.0000 0.0000 0.0000 -19.9830 -7.4114 -3.7847 1.1169 6.7136 18.8696 1.8170 10.5615 -31.1286 0.0352 -1.2106 -3.3283 0.0000 0.0000 0.0000 6.0620 11.1517 -31.6662 -3.6460 -11.6739 34.5878 -0.1711 -6.4319 -12.6782 -0.3298 -3.6909 10.2085 -6.5369 -0.8435 5.1889 0.8347 -1.4528 0.8804 4.6332 -0.6809 -1.8152 -5.8525 -5.8108 -15.7828 5.5603 -7.4362 12.5873 1.9487 -3.3869 6.8604 -0.0000 0.0000 0.0000 -89.7311 18.4174 -23.6329 7.7543 -13.1538 -0.8954 -0.0000 -0.0000 27.5328 13.9001 25.4327 6.0666 -7.1250 0.0000 -0.0000 -16.9019 55.2718 -4.3533 -0.0000 0.0000 0.0000 90.1783 -23.4117 -22.0233 -26.4512 37.6508 -9.1619 0.0000 -0.0000 -34.9007 -33.6211 22.8810 -14.4956 7.1250 -0.0000 -0.0000 -2.8081 -3.1317 -2.6538
0.00 0.00 0.00 2.9752 62.4563 -354.6200 0.0000 0.0000 0.0000 -13.3772 10.1735 -11.5335 6.2255 14.6434 45.8802 0.1413 1.4649 -7.7970 1.0405 -6.4875 -18.2056 0.0000 0.0000 0.0000 13.5942 11.0808 -19.9750 -3.3438 -11.2318 33.0656 -0.1081 -9.8433 -15.6808 -0.5434 -4.7226 13.1191 -3.5191 -0.9022 4.6494 0.5739 -1.3559 0.8258 2.6453 -0.6545 -1.6607 -5.8029 -6.1644 -11.2150 3.0570 -7.8147 15.0216 1.1970 -3.8254 6.7800 0.0000 -0.0000 0.0000 -80.1949 13.5635 6.4807 31.9711 -42.5242 -12.7213 -0.0000 0.0000 -17.9175 23.6522 25.9572 10.8520 -7.1250 0.0000 -0.0000 -6.9608 57.8328 -2.1935 0.0000 -0.0000 0.0000 86.5825 -13.5100 -9.2492 -34.3142 44.3161 -14.3321 0.0000 -0.0000 -36.0124 -32.0046 27.3386 -16.0146 7.1250 -0.0000 -0.0000 -1.0387 1.3845 -1.0637
0.00 0.00 0.00 -0.1837 55.1313 -360.7470 0.0000 0.0000 0.0000 -8.5258 10.0739 -13.0809 7.5054 15.7431 50.7609 0.4596 1.9176 -13.6479 0.6451 -5.1382 -14.3032 0.0000 0.0000 0.0000 15.3516 12.4072 -14.1841 -3.1114 -10.8733 31.8537 -0.3824 -6.7438 -16.0705 -0.2940 -3.4864 9.6361 -2.3793 -0.4670 5.9578 1.1080 -0.7282 1.3525 2.5315 -0.3455 -1.9018 -5.9142 -6.4431 -11.9067 2.0900 -8.0105 18.2838 0.8191 -3.9883 7.9429 -0.0000 0.0000 0.0000 -76.2155 15.1809 12.7839 76.6234 -59.3130 -48.4422 -0.0000 0.0000 -19.7142 6.4386 27.9997 3.0327 -7.1250 0.0000 -0.0000 -25.9370 56.1800 -7.4661 -0.0000 0.0000 0.0000 81.1246 -11.9286 -3.9364 -62.5491 56.9518 -36.4701 0.0000 -0.0000 -30.6967 -31.8033 29.9828 -17.2178 7.1250 -0.0000 -0.0000 -0.4075 4.1911 -0.4362
0.00 0.00 0.00 1.5897 53.6674 -359.9060 0.0000 0.0000 0.0000 -9.2293 8.2929 -11.9995 6.7658 15.1314 47.9828 0.6066 2.6503 -15.9114 0.5411 -4.7130 -13.0917 0.0000 0.0000 0.0000 13.7635 11.4630 -13.4017 -3.0420 -10.7628 31.4839 -0.4184 -5.1544 -15.2024 -0.0818 -1.8445 5.0762 -2.9765 -0.8070 5.9515 0.5828 -1.2319 1.2695 2.3631 -0.5937 -1.9516 -5.6490 -6.2432 -11.1622 1.8566 -7.7832 18.2410 0.7510 -3.8923 7.7650 0.0000 -0.0000 0.0000 -74.1985 15.4763 13.6099 95.0726 -59.9025 -64.3916 -0.0000 0.0000 -23.6979 8.9621 32.1134 4.7922 -7.1250 0.0000 -0.0000 -26.7118 60.3816 -10.4569 0.0000 -0.0000 0.0000 79.4745 -11.9961 -1.8780 -77.5435 59.4055 -49.2339 0.0000 -0.0000 -24.9106 -29.4171 32.4575 -16.8364 7.1250 -0.0000 -0.0000 1.4293 6.1460 1.5746
0.00 0.00 0.00 2.4297 51.7882 -359.3810 0.0000 0.0000 0.0000 -9.4213 6.2552 -11.0338 5.7744 14.2061 44.0695 0.6705 3.5329 -17.1502 0.4773 -4.4305 -12.2909 0.0000 0.0000 0.0000 12.6939 12.8596 -12.6262 -2.9883 -10.6761 31.1953 -0.4446 -4.5593 -15.0986 -0.1315 -2.3371 6.4382 -3.7207 -0.8552 5.3696 0.5476 -1.3134 1.5699 2.7347 -0.6484 -1.2955 -5.9956 -6.2611 -11.1398 2.3043 -7.8305 17.7355 0.9532 -3.9010 7.6296 0.0000 -0.0000 0.0000 -71.8705 14.0676 15.0089 112.5375 -57.9909 -79.3864 -0.0000 0.0000 -29.5429 -0.6228 32.1518 -0.3314 -7.1250 0.0000 -0.0000 -36.2149 58.2344 -12.8035 0.0000 -0.0000 0.0000 77.4392 -10.2645 -1.1425 -93.9782 59.9401 -63.4445 0.0000 -0.0000 -20.9981 -24.3460 34.1831 -14.2638 7.1250 -0.0000 -0.0000 4.5498 6.6200 5.0592
0.00 0.00 0.00 1.1106 45.3110 -361.1070 0.0000 0.0000 0.0000 -7.6979 -4.9496 -4.9274 2.5117 9.8592 28.5221 0.6439 6.7746 -19.1144 0.6481 -5.1500 -14.3369 0.0000 0.0000 0.0000 11.4349 15.4523 -11.6600 -2.6479 -10.1021 29.3079 -0.3581 -2.3334 -12.4025 -0.1189 -2.2227 6.1214 -4.0867 -0.6989 2.4502 1.6095 -0.9723 3.2025 3.9591 -0.5865 2.0223 -7.1249 -6.0282 -7.4023 2.7830 -7.6112 15.1294 1.4530 -3.8636 6.1928 -0.0000 -0.0000 0.0000 -62.3733 -6.7174 18.6350 126.8289 -54.1970 -91.2732 -0.0000 0.0000 -41.3026 -8.7615 31.7428 -4.6356 -7.1250 0.0000 -0.0000 -43.3422 56.1837 -13.6860 -0.0000 -0.0000 0.0000 65.7076 9.6264 1.3336 -108.2561 58.7025 -75.7413 0.0000 -0.0000 -12.4328 -20.7586 35.1705 -12.3161 7.1250 -0.0000 -0.0000 6.6706 6.7976 7.4613
0.00 0.00 0.00 2.7235 42.3383 -360.9170 0.0000 0.0000 0.0000 -9.1413 -10.8878 -0.7123 1.6388 8.0693 22.9248 0.3902 7.2604 -16.6406 1.1916 -6.9269 -19.4989 0.0000 0.0000 0.0000 8.7575 16.6778 -11.0700 -2.5679 -9.9603 28.8481 -0.3677 -0.1035 -11.4934 -0.1437 -2.4433 6.7324 -5.3127 -0.3257 3.0014 1.3229 -0.5301 2.6411 4.3593 -0.3515 1.1030 -6.7973 -6.0648 -5.3365 2.2049 -7.7534 17.5303 1.2454 -3.9727 6.5719 0.0000 -0.0000 0.0000 -58.6513 -20.6343 21.2352 117.4808 -56.9447 -83.5550 -0.0000 0.0000 -40.7325 -6.3444 29.6875 -3.1519 -7.1250 0.0000 -0.0000 -39.3104 55.0793 -10.9747 0.0000 -0.0000 0.0000 60.5665 23.3673 3.0340 -91.5423 59.9910 -61.3356 0.0000 -0.0000 -6.7324 -25.2622 35.9394 -15.4810 7.1250 -0.0000 -0.0000 4.3827 8.6347 5.0046
